<?xml version="1.0" standalone="no"?>
<!DOCTYPE svg PUBLIC "-//W3C//DTD SVG 20010904//EN"
 "http://www.w3.org/TR/2001/REC-SVG-20010904/DTD/svg10.dtd">
<svg version="1.0" xmlns="http://www.w3.org/2000/svg"
 width="500.000000pt" height="500.000000pt" viewBox="0 0 500.000000 500.000000"
 preserveAspectRatio="xMidYMid meet">
<metadata>
Created by potrace 1.14, written by Peter Selinger 2001-2017
</metadata>
<g transform="translate(0.000000,500.000000) scale(0.100000,-0.100000)"
fill="#000000" stroke="none">
<path d="M2305 4701 c-7 -12 -1 -15 50 -31 71 -22 135 -62 141 -87 22 -87
-268 -195 -1046 -388 -318 -79 -403 -105 -493 -152 -106 -56 -118 -100 -46
-172 48 -47 141 -89 256 -114 82 -17 133 -21 308 -21 120 0 249 5 300 12 487
69 888 239 1131 478 95 94 117 137 121 238 1 43 4 81 7 83 8 8 118 -55 179
-102 200 -157 208 -360 22 -549 -102 -105 -220 -183 -434 -291 -370 -185 -962
-368 -1696 -525 -468 -100 -635 -156 -735 -246 -72 -66 -61 -117 48 -214 187
-167 556 -250 979 -221 373 26 708 93 1088 218 542 177 1028 430 1337 696 136
117 206 211 248 337 18 53 21 81 18 152 -6 120 -49 208 -156 316 -347 352
-950 592 -1487 592 -73 0 -136 -4 -140 -9z"/>
<path d="M4377 3543 c-3 -4 -10 -41 -16 -80 -34 -220 -183 -421 -477 -641
-501 -377 -1420 -722 -2569 -967 -381 -81 -535 -126 -648 -188 -73 -40 -101
-75 -100 -122 1 -50 36 -90 121 -140 134 -79 312 -131 527 -155 127 -14 455
-14 605 0 942 86 1984 476 2509 941 146 128 251 280 282 409 41 168 -22 511
-149 809 -53 124 -72 155 -85 134z"/>
<path d="M4493 1949 c-395 -545 -1365 -960 -2518 -1079 -267 -27 -372 -51
-432 -96 -65 -49 -53 -105 41 -190 283 -257 954 -299 1556 -98 236 79 471 203
648 341 307 239 596 651 727 1035 61 177 57 195 -22 87z"/>
</g>
</svg>
